<svg xmlns="http://www.w3.org/2000/svg" width="253.114" height="174.575" viewBox="0 0 253.114 174.575">
  <g id="Secure_data-pana" data-name="Secure data-pana" transform="translate(-30.406 -114.03)">
    <g id="freepik--background-complete--inject-2" transform="translate(30.406 114.03)">
      <path id="Path_1569" data-name="Path 1569" d="M70.654,360.393c8.092-6.625,9.139-17.757,7.993-27.592-.193-1.643-.152-3.391-1.064-4.771s-2.842-2.216-4.28-1.4c-1.169.678-1.614,2.146-2.21,3.38a9.805,9.805,0,0,1-3.613,4.034,3.773,3.773,0,0,1-3.4.585c-1.5-.667-1.83-2.614-1.953-4.251q-.351-4.578-.69-9.162a15.29,15.29,0,0,0-.9-4.824,5.116,5.116,0,0,0-3.508-3.163,3.135,3.135,0,0,0-3.7,2.38,15.067,15.067,0,0,0,.117,2.046,1.754,1.754,0,0,1-.889,1.7,2.063,2.063,0,0,1-1.883-.585,21.685,21.685,0,0,1-4.444-5.572,30.762,30.762,0,0,0-4.192-5.789,8.968,8.968,0,0,0-6.356-2.865,5.386,5.386,0,0,0-5.21,4.093c-.409,2.368,1.14,4.59,2.777,6.332a36.935,36.935,0,0,0,8.3,6.56,3.035,3.035,0,0,1,1.4,1.263c.45,1.064-.509,2.234-1.567,2.684a19.588,19.588,0,0,1-3.841.748,3.76,3.76,0,0,0-3.029,2.181c-.538,1.754,1.023,3.368,2.508,4.4a32.1,32.1,0,0,0,9.829,4.578,10.73,10.73,0,0,1,3.625,1.386,3.039,3.039,0,0,1,1.269,3.391,3.142,3.142,0,0,1-3.292,1.567,22.629,22.629,0,0,1-3.754-1.07c-2.339-.661-5.262-.263-6.584,1.8a5.14,5.14,0,0,0-.181,4.631,11.992,11.992,0,0,0,2.842,3.836,31.965,31.965,0,0,0,14.4,8.326c5.438,1.374,10.378,1.462,15.483-.865" transform="translate(-30.406 -193.151)" fill="#ebebeb"/>
      <path id="Path_1570" data-name="Path 1570" d="M72.986,368.836a71.287,71.287,0,0,0-3.818-13.267,145,145,0,0,0-7.2-15.308l-2.111-3.906c-.69-1.286-1.374-2.561-2.122-3.766a73.269,73.269,0,0,0-4.678-6.671c-1.6-2.052-3.192-3.947-4.678-5.7s-2.924-3.362-4.309-4.777a59.429,59.429,0,0,0-6.964-6.174c-.877-.667-1.579-1.169-2.052-1.485l-.544-.374a2.04,2.04,0,0,0-.193-.117s.058.053.175.14l.532.392c.468.339,1.169.842,2.023,1.52a61.752,61.752,0,0,1,6.894,6.221c1.362,1.415,2.789,3.029,4.286,4.789s3.076,3.654,4.678,5.707a73.424,73.424,0,0,1,4.678,6.66c.743,1.2,1.421,2.467,2.111,3.754l2.093,3.912a150.681,150.681,0,0,1,7.168,15.267,72.79,72.79,0,0,1,3.859,13.214" transform="translate(-32.032 -194.29)" fill="#e0e0e0"/>
      <path id="Path_1571" data-name="Path 1571" d="M74.277,337.59a3.607,3.607,0,0,0,.094-.713c.047-.456.094-1.128.14-1.953.1-1.649.158-3.929.216-6.432s.152-4.795.286-6.432c.058-.824.123-1.485.17-1.947a4.6,4.6,0,0,0,.047-.713,3.549,3.549,0,0,0-.146.7c-.076.456-.164,1.123-.246,1.941-.181,1.649-.3,3.929-.363,6.432s-.1,4.754-.134,6.432c-.029.789-.047,1.45-.064,1.953A3.783,3.783,0,0,0,74.277,337.59Z" transform="translate(-48.619 -199.32)" fill="#e0e0e0"/>
      <path id="Path_1572" data-name="Path 1572" d="M37.26,346.669h.86c.55,0,1.345,0,2.339.029,1.97.041,4.678.193,7.689.5s5.689.707,7.63,1.052c.971.17,1.754.322,2.3.427l.62.123c.146,0,.222.035.222,0a.672.672,0,0,0-.21-.07l-.614-.17c-.532-.134-1.316-.316-2.286-.5-1.935-.392-4.637-.819-7.636-1.134a74.372,74.372,0,0,0-7.712-.427c-.988,0-1.754,0-2.339.053l-.631.041a.765.765,0,0,0-.228.076Z" transform="translate(-33.253 -210.574)" fill="#e0e0e0"/>
      <path id="Path_1573" data-name="Path 1573" d="M93.46,369.506a1.942,1.942,0,0,0,.117-.275c.082-.2.175-.468.3-.789.257-.69.585-1.7,1.017-2.923.824-2.5,1.859-5.982,2.959-9.846s2.1-7.35,2.883-9.858c.392-1.228.707-2.234.941-2.97.105-.327.187-.585.251-.807a1.333,1.333,0,0,0,.076-.286,1.169,1.169,0,0,0-.123.269c-.076.211-.175.474-.3.8-.257.69-.585,1.7-1.012,2.924-.83,2.5-1.865,5.982-2.959,9.846s-2.082,7.361-2.888,9.858c-.386,1.228-.707,2.234-.936,2.964-.105.333-.187.585-.257.813A1.507,1.507,0,0,0,93.46,369.506Z" transform="translate(-56.592 -208.602)" fill="#e0e0e0"/>
      <path id="Path_1574" data-name="Path 1574" d="M43.72,377.79a1,1,0,0,0,.287.088l.848.2,3.122.713c2.631.585,6.256,1.479,10.262,2.462s7.636,1.836,10.279,2.4c1.321.281,2.391.5,3.134.631l.854.152a1.69,1.69,0,0,0,.3.041,1.106,1.106,0,0,0-.292-.088l-.848-.2-3.116-.713c-2.631-.585-6.256-1.479-10.256-2.462s-7.636-1.836-10.279-2.4c-1.321-.281-2.391-.5-3.134-.631l-.86-.158a1.865,1.865,0,0,0-.3-.035Z" transform="translate(-35.935 -223.569)" fill="#e0e0e0"/>
      <rect id="Rectangle_343" data-name="Rectangle 343" width="44.145" height="29.756" transform="matrix(0.958, -0.288, 0.288, 0.958, 74.785, 12.881)" fill="#fff"/>
      <path id="Path_1575" data-name="Path 1575" d="M209.033,142.663s-.064-.181-.17-.52-.263-.854-.468-1.509c-.4-1.321-1-3.257-1.754-5.724-1.509-4.952-3.666-12.057-6.3-20.7l.152.082-42.262,12.764h0l.105-.193,8.56,28.5-.175-.094,30.451-9.092,8.718-2.579,2.339-.684.585-.175.21-.053-.187.064-.585.187-2.292.7-8.665,2.649-30.5,9.244-.134.041-.041-.134c-2.614-8.683-5.525-18.336-8.583-28.493l-.041-.146.14-.041h0l42.28-12.688.117-.035.035.117c2.59,8.695,4.713,15.834,6.2,20.81.725,2.467,1.3,4.4,1.684,5.724.193.643.333,1.14.439,1.491S209.033,142.663,209.033,142.663Z" transform="translate(-83.396 -114.03)" fill="#e0e0e0"/>
      <path id="Path_1576" data-name="Path 1576" d="M200.594,114.3a.767.767,0,0,1-.058.129l-.2.363c-.193.333-.456.8-.784,1.38L196.6,121.24l-9.9,16.8-.07.111-.117-.047-1.292-.5-19.044-7.432-5.759-2.28-1.555-.637-.4-.17a.479.479,0,0,1-.134-.07.409.409,0,0,1,.146.041l.409.14,1.585.585,5.789,2.193,19.073,7.344,1.3.5-.187.064c3.917-6.578,7.437-12.472,9.987-16.758l3.035-5.017c.351-.585.631-1.023.83-1.357l.228-.345C200.559,114.335,200.588,114.294,200.594,114.3Z" transform="translate(-83.529 -114.142)" fill="#e0e0e0"/>
      <path id="Path_1577" data-name="Path 1577" d="M407.733,308.619s-2.742-2.713-8.086,4.064a100.7,100.7,0,0,0-7.7,10.811s-1.333,1.38-2.21.129-1.783-4.479-3.736-4.315-3.076,2.175-3.339,5.385-1.088,10.232-1.169,10.864-.585,1.456-1.339.7-4.549-7.174-7.5-5.2-2.2,11.063-2.14,12.051-.2,1.362-.7,1.5-1.573-2.14-2.736-3.923-2.818-3.66-4.42-2.368-3.3,7.648.743,19.324l2.228,5.262,5.7.813c12.32.988,18.05-2.245,18.9-4.122s-1.374-3.011-3.4-3.689-4.5-1.169-4.485-1.666.3-.86,1.28-1.047,9.94-1.754,11.109-5.093-5.993-5.432-6.911-5.958-.24-1.245.345-1.473,7.18-2.795,10.226-3.847,4.724-2.584,4.379-4.584-3.684-1.994-5.116-2.538-.427-2.169-.427-2.169a100.294,100.294,0,0,0,8.578-10.145c5.221-6.876,1.818-8.882,1.818-8.882" transform="translate(-167.658 -194.62)" fill="#ebebeb"/>
      <path id="Path_1578" data-name="Path 1578" d="M403.315,319.32a.866.866,0,0,1-.094.146l-.3.421c-.281.374-.672.906-1.169,1.585-1.023,1.374-2.514,3.35-4.374,5.783-3.713,4.865-8.905,11.542-14.67,18.886l-14.746,18.833-4.45,5.724-1.216,1.549-.322.4c-.076.088-.111.134-.117.129a.871.871,0,0,1,.094-.146l.3-.415,1.169-1.59c1.017-1.374,2.514-3.35,4.368-5.783,3.713-4.865,8.911-11.542,14.682-18.886s10.957-14,14.74-18.833c1.865-2.4,3.385-4.35,4.45-5.718.515-.661.924-1.169,1.21-1.555l.327-.4C403.269,319.361,403.31,319.314,403.315,319.32Z" transform="translate(-168.058 -199.286)" fill="#e0e0e0"/>
      <path id="Path_1579" data-name="Path 1579" d="M405.668,335.09a7.162,7.162,0,0,1,.216,1.532c.088.947.164,2.263.216,3.719s.076,2.66.105,3.719a9.232,9.232,0,0,1,0,1.544,6.983,6.983,0,0,1-.211-1.532c-.076-.953-.14-2.269-.193-3.719s-.088-2.66-.129-3.719A8.908,8.908,0,0,1,405.668,335.09Z" transform="translate(-186.239 -205.836)" fill="#e0e0e0"/>
      <path id="Path_1580" data-name="Path 1580" d="M407.45,352.686a59.433,59.433,0,0,1,6.04-.661c3.339-.275,6.057-.433,6.063-.351a60.283,60.283,0,0,1-6.04.655C410.175,352.61,407.462,352.768,407.45,352.686Z" transform="translate(-186.992 -212.714)" fill="#e0e0e0"/>
      <path id="Path_1581" data-name="Path 1581" d="M390.86,372.7a9.461,9.461,0,0,1,1.555.251c.959.181,2.275.433,3.736.667s2.789.409,3.754.532a9.877,9.877,0,0,1,1.561.251,7.341,7.341,0,0,1-1.579-.035c-.976-.07-2.339-.21-3.783-.45s-2.789-.52-3.736-.754A7.373,7.373,0,0,1,390.86,372.7Z" transform="translate(-180.102 -221.455)" fill="#e0e0e0"/>
      <path id="Path_1582" data-name="Path 1582" d="M385.62,356.48a6.76,6.76,0,0,1,.585,1.339c.31.848.725,2.017,1.169,3.315s.819,2.479,1.082,3.344a7.754,7.754,0,0,1,.362,1.409,6.334,6.334,0,0,1-.585-1.345c-.316-.842-.725-2.011-1.169-3.309s-.819-2.485-1.082-3.345A6.687,6.687,0,0,1,385.62,356.48Z" transform="translate(-177.926 -214.719)" fill="#e0e0e0"/>
      <path id="Path_1583" data-name="Path 1583" d="M368.81,371.64a12.181,12.181,0,0,1,.713,1.725c.4,1.082.941,2.579,1.52,4.239s1.082,3.169,1.438,4.262a11.108,11.108,0,0,1,.509,1.8,11.318,11.318,0,0,1-.713-1.754c-.4-1.076-.941-2.573-1.52-4.233s-1.088-3.169-1.438-4.268a10.981,10.981,0,0,1-.509-1.772Z" transform="translate(-170.945 -221.015)" fill="#e0e0e0"/>
      <path id="Path_1584" data-name="Path 1584" d="M375.93,391.67a13.892,13.892,0,0,1,1.982.257c1.216.193,2.923.456,4.765.7s3.555.433,4.777.585a15.053,15.053,0,0,1,1.982.263,11.912,11.912,0,0,1-2-.047c-1.234-.082-2.924-.234-4.8-.485s-3.555-.544-4.765-.784a12.278,12.278,0,0,1-1.941-.491Z" transform="translate(-173.901 -229.333)" fill="#e0e0e0"/>
      <rect id="Rectangle_344" data-name="Rectangle 344" width="45.367" height="33.153" transform="translate(212.881 101.819) rotate(-88.25)" fill="#f5f5f5"/>
      <rect id="Rectangle_345" data-name="Rectangle 345" width="45.367" height="33.153" transform="translate(206.78 107.847) rotate(-88.25)" fill="#fff"/>
      <path id="Path_1585" data-name="Path 1585" d="M417.077,267.157a2.124,2.124,0,0,1,0-.222V266.3c0-.585.029-1.4.058-2.479.058-2.169.14-5.321.246-9.314.228-7.981.55-19.3.93-32.691l.134.14-33.135-1h0l.158-.146c-.532,16.956-1.017,32.621-1.415,45.344l-.123-.129,24.066.8,6.695.234,1.754.07.614.029h-.585l-1.754-.041-6.666-.17-24.142-.672h-.123v-.123c.38-12.729.848-28.411,1.357-45.35v-.152h.158l33.129,1.029h.14v.14c-.439,13.448-.807,24.78-1.07,32.778-.134,3.976-.246,7.122-.316,9.279-.041,1.064-.07,1.883-.094,2.45a3.671,3.671,0,0,1-.029.626A.281.281,0,0,0,417.077,267.157Z" transform="translate(-177.166 -158.309)" fill="#e0e0e0"/>
      <path id="Path_1586" data-name="Path 1586" d="M409.563,238.481c0,.088-3.608.041-8.051-.094s-8.051-.316-8.051-.4,3.613-.041,8.057.094S409.563,238.4,409.563,238.481Z" transform="translate(-181.182 -165.493)" fill="#e0e0e0"/>
      <path id="Path_1587" data-name="Path 1587" d="M418.019,245.5c0,.082-5.555,0-12.407-.228s-12.407-.45-12.4-.532,5.555,0,12.413.228S418.025,245.41,418.019,245.5Z" transform="translate(-181.078 -168.3)" fill="#e0e0e0"/>
      <path id="Path_1588" data-name="Path 1588" d="M417.8,252.528c0,.082-5.56,0-12.413-.228s-12.4-.45-12.4-.532,5.561,0,12.413.228S417.8,252.44,417.8,252.528Z" transform="translate(-180.986 -171.219)" fill="#e0e0e0"/>
      <path id="Path_1589" data-name="Path 1589" d="M417.589,259.558c0,.082-5.555,0-12.407-.228s-12.4-.45-12.4-.532,5.561,0,12.413.228S417.595,259.488,417.589,259.558Z" transform="translate(-180.899 -174.139)" fill="#e0e0e0"/>
      <path id="Path_1590" data-name="Path 1590" d="M417.375,266.588c0,.082-5.561,0-12.407-.228s-12.407-.45-12.407-.532,5.561,0,12.413.228S417.375,266.5,417.375,266.588Z" transform="translate(-180.808 -177.058)" fill="#e0e0e0"/>
      <path id="Path_1591" data-name="Path 1591" d="M417.165,273.618c0,.082-5.561,0-12.413-.228s-12.4-.45-12.4-.532,5.561,0,12.413.228S417.165,273.513,417.165,273.618Z" transform="translate(-180.721 -179.978)" fill="#e0e0e0"/>
      <path id="Path_1592" data-name="Path 1592" d="M416.949,280.648c0,.082-5.561,0-12.407-.228s-12.407-.45-12.4-.532,5.555,0,12.407.228S416.955,280.56,416.949,280.648Z" transform="translate(-180.633 -182.898)" fill="#e0e0e0"/>
      <path id="Path_1593" data-name="Path 1593" d="M405.257,287.315c0,.082-2.988.058-6.671-.053s-6.666-.275-6.666-.357,2.988-.058,6.671.053S405.257,287.227,405.257,287.315Z" transform="translate(-180.542 -185.804)" fill="#e0e0e0"/>
      <rect id="Rectangle_346" data-name="Rectangle 346" width="28.031" height="35.059" transform="translate(131.391 47.054) rotate(-68.29)" fill="#fff"/>
      <path id="Path_1594" data-name="Path 1594" d="M298,162.9l-.158-.058-.456-.175-1.754-.7-6.683-2.66-23.54-9.355.07-.029-10.361,26.037h0l-.035-.082,32.568,12.98h-.064c3.134-7.847,5.736-14.349,7.549-18.892.912-2.269,1.625-4.052,2.111-5.262l.585-1.386.193-.479-.181.474c-.123.316-.3.778-.544,1.38-.479,1.216-1.169,3-2.082,5.262-1.807,4.549-4.4,11.068-7.513,18.933v.047h-.047l-32.615-12.9h-.059v-.058h0c3.748-9.4,7.285-18.289,10.373-26.037v-.053h.047l23.6,9.425,6.648,2.666,1.754.7.45.181Z" transform="translate(-123.671 -128.918)" fill="#e0e0e0"/>
      <rect id="Rectangle_347" data-name="Rectangle 347" width="24.499" height="32.597" transform="translate(133.143 45.889) rotate(-68.29)" fill="#ebebeb"/>
      <path id="Path_1595" data-name="Path 1595" d="M258.32,185.57l16.214-9.94,3.029,11.46,6.326-2.959,4.719,13.495Z" transform="translate(-125.058 -139.612)" fill="#e0e0e0"/>
      <path id="Path_1596" data-name="Path 1596" d="M299.672,176.5a2.561,2.561,0,1,1-.024-1.964A2.567,2.567,0,0,1,299.672,176.5Z" transform="translate(-140.175 -138.514)" fill="#e0e0e0"/>
      <path id="Path_1597" data-name="Path 1597" d="M117.21,224.666a1.526,1.526,0,0,0,.7.111,1.24,1.24,0,0,0,.748-.368,7.4,7.4,0,0,0,.614-1.012l3.795-6.619,1.263-2.187.672-1.169a4.058,4.058,0,0,0,.3-.585,1.064,1.064,0,0,0,0-.62,1.023,1.023,0,0,0-.333-.532,5.643,5.643,0,0,0-.585-.363l-1.3-.725-2.713-1.52-12.08-6.777a1.093,1.093,0,0,0-1.421.351l-.906,1.555c-.585,1.029-1.169,2.052-1.754,3.052l-3.391,5.794c-.134.228-.269.456-.4.684a1.169,1.169,0,0,0-.193.667,1.064,1.064,0,0,0,.24.631,1.8,1.8,0,0,0,.585.4l2.555,1.45,4.572,2.6,6.619,3.783,1.8,1.041.462.275c.105.064.158.1.152.105l-.164-.076-.479-.251-1.818-.994-6.671-3.7-4.572-2.59-2.561-1.433a2.088,2.088,0,0,1-.661-.462,1.345,1.345,0,0,1-.3-.8,1.4,1.4,0,0,1,.222-.819c.129-.228.263-.456.4-.684l3.35-5.783,1.754-3.052.918-1.573a1.4,1.4,0,0,1,1.818-.45l12.068,6.8,2.713,1.532,1.292.737a5.351,5.351,0,0,1,.643.386,1.3,1.3,0,0,1,.415.667,1.4,1.4,0,0,1,0,.76,4.32,4.32,0,0,1-.333.637l-.684,1.169-1.275,2.181c-1.631,2.76-2.953,5-3.877,6.572a7.783,7.783,0,0,1-.655,1.012,1.3,1.3,0,0,1-.807.368,1.169,1.169,0,0,1-.538-.088A.789.789,0,0,1,117.21,224.666Z" transform="translate(-59.299 -150.508)" fill="#e0e0e0"/>
      <path id="Path_1598" data-name="Path 1598" d="M120.9,218.5l1.473,2.614-3.04.058-3.04.053,1.567-2.672,1.567-2.672Z" transform="translate(-66.074 -156.328)" fill="#e0e0e0"/>
    </g>
    <g id="freepik--Table--inject-2" transform="translate(33.718 287.505)">
      <path id="Path_1599" data-name="Path 1599" d="M285.872,410.884c0,.088-55.927.158-124.892.158s-124.91-.058-124.91-.158,55.915-.164,124.91-.164S285.872,410.808,285.872,410.884Z" transform="translate(-36.07 -410.72)" fill="#263238"/>
    </g>
    <g id="freepik--Character--inject-2" transform="translate(59.679 142.3)">
      <path id="Path_1600" data-name="Path 1600" d="M129.272,315.585,111.62,297.851l8.876-16.3c8.876-11.367,27.668-10.636,27.668-10.636a107.738,107.738,0,0,1,27.709,1.7C190.8,275.539,189.6,285.4,189.6,285.4l2,36.585,2.146,29.791-55.05,1.111-9.42-37.275" transform="translate(-93.407 -207.35)" fill="#ffd1e0"/>
      <path id="Path_1601" data-name="Path 1601" d="M145.992,364.706l-49.308.585A16.027,16.027,0,0,1,82,342.429l21.084-39.1,19.207,12.98-13.1,27.171,39.912.713Z" transform="translate(-80.471 -220.916)" fill="#ffd1e0"/>
      <path id="Path_1602" data-name="Path 1602" d="M242,285.66l39.567,61.09-23.084,1.509s-13.787-21.722-13.477-21.277C245.555,327.8,242,285.66,242,285.66Z" transform="translate(-147.554 -213.577)" fill="#ffd1e0"/>
      <path id="Path_1603" data-name="Path 1603" d="M145.669,311.581a1.058,1.058,0,0,1,.053-.316c.058-.234.123-.526.21-.889.181-.766.45-1.877.725-3.257s.585-3.04.778-4.888a25.593,25.593,0,0,0,0-6.028,15.834,15.834,0,0,0-2.041-5.619,22.739,22.739,0,0,0-2.923-3.958,27.835,27.835,0,0,0-2.4-2.339,11.369,11.369,0,0,1-.924-.807,1.569,1.569,0,0,1,.269.17c.164.123.427.292.731.544a23.513,23.513,0,0,1,2.479,2.263,21.957,21.957,0,0,1,3.017,3.958,15.786,15.786,0,0,1,2.1,5.724,25.183,25.183,0,0,1-.047,6.1,48.944,48.944,0,0,1-.842,4.9c-.3,1.386-.585,2.491-.824,3.251-.105.38-.2.672-.263.871A1.754,1.754,0,0,1,145.669,311.581Z" transform="translate(-104.84 -212.672)" fill="#263238"/>
      <path id="Path_1604" data-name="Path 1604" d="M140.059,335.14a4.918,4.918,0,0,1-.339.883c-.234.585-.585,1.368-1.035,2.339-.895,1.982-2.163,4.707-3.625,7.689s-2.842,5.654-3.865,7.6c-.515.959-.936,1.754-1.234,2.263a6.117,6.117,0,0,1-.491.813,5.847,5.847,0,0,1,.386-.865c.3-.585.684-1.368,1.169-2.31l3.783-7.6c1.433-2.964,2.736-5.642,3.707-7.648.456-.941.83-1.725,1.123-2.339a5.527,5.527,0,0,1,.421-.824Z" transform="translate(-100.82 -234.126)" fill="#263238"/>
      <path id="Path_1605" data-name="Path 1605" d="M158.393,393.088v-.4c.029-.281.07-.672.117-1.169.117-1.041.281-2.52.485-4.385.433-3.783,1.052-9.1,1.754-15.378l.14.152H146.324l-25.44-.041-7.718-.047-2.1-.029h-.737a.78.78,0,0,1,.187,0h.55l2.1-.029,7.718-.047,25.481-.041h14.723v.152c-.772,6.268-1.421,11.589-1.889,15.366-.234,1.859-.427,3.339-.585,4.379q-.094.737-.158,1.169l-.047.3C158.4,393.053,158.4,393.088,158.393,393.088Z" transform="translate(-92.872 -249.297)" fill="#263238"/>
      <path id="Path_1606" data-name="Path 1606" d="M124.424,367.881a12.452,12.452,0,0,1-.982-1.234A19.19,19.19,0,0,0,117.7,361.8a14.958,14.958,0,0,1-1.38-.76,5.455,5.455,0,0,1,1.479.585,15.857,15.857,0,0,1,5.812,4.906,5.719,5.719,0,0,1,.813,1.351Z" transform="translate(-95.359 -244.882)" fill="#263238"/>
      <path id="Path_1607" data-name="Path 1607" d="M247.607,343.744a2.812,2.812,0,0,1-.082-.509c-.041-.357-.094-.842-.164-1.456-.134-1.263-.316-3.093-.509-5.356-.4-4.531-.865-10.8-1.275-17.722s-.7-13.2-.859-17.746c-.082-2.275-.14-4.093-.164-5.385,0-.614,0-1.1-.029-1.462a4.86,4.86,0,0,1,0-.509,2.923,2.923,0,0,1,.053.509c0,.357.047.848.082,1.462.064,1.3.152,3.128.263,5.373.216,4.543.538,10.811.947,17.74s.842,13.185,1.169,17.722c.175,2.239.316,4.093.415,5.368.047.585.082,1.1.111,1.456A2.844,2.844,0,0,1,247.607,343.744Z" transform="translate(-148.6 -216.875)" fill="#263238"/>
      <path id="Path_1608" data-name="Path 1608" d="M170.022,311.23a5.69,5.69,0,0,1,.064-.8c.07-.555.158-1.3.269-2.21.257-1.93.585-4.572,1.017-7.636l.222.14-3.783,2.649-3.847,2.678-.275.193.047-.333c.468-3.035.865-5.654,1.169-7.6.152-.895.269-1.631.363-2.181a4.473,4.473,0,0,1,.164-.778,4.468,4.468,0,0,1-.07.8c-.07.55-.158,1.286-.275,2.193-.263,1.918-.631,4.543-1.052,7.6l-.222-.14,3.841-2.69,3.789-2.637.275-.193-.047.333c-.45,3.052-.842,5.695-1.123,7.6-.146.906-.263,1.649-.351,2.2A4.676,4.676,0,0,1,170.022,311.23Z" transform="translate(-115.032 -217.601)" fill="#e0e0e0"/>
      <path id="Path_1609" data-name="Path 1609" d="M201.408,320.7a4.621,4.621,0,0,1-.585-.555c-.38-.409-.895-.953-1.526-1.62l-5.221-5.66.251-.088c-.123,1.432-.251,2.988-.386,4.6s-.275,3.216-.4,4.678l-.029.339-.222-.251-5.081-5.73-1.45-1.672a3.919,3.919,0,0,1-.491-.626,5.136,5.136,0,0,1,.585.585l1.509,1.614,5.157,5.654-.251.088c.123-1.456.251-3.035.392-4.678s.269-3.169.392-4.6l.029-.333.222.246,5.145,5.736,1.468,1.678a4.933,4.933,0,0,1,.491.6Z" transform="translate(-124.409 -224.699)" fill="#e0e0e0"/>
      <path id="Path_1610" data-name="Path 1610" d="M226.7,325.22a4.059,4.059,0,0,1-.4.7l-1.169,1.883-4.175,6.479-.14-.222,4.537-.783,4.619-.778.333-.058-.158.251-4.268,6.35-1.286,1.836a5.064,5.064,0,0,1-.479.637,5.423,5.423,0,0,1,.4-.69l1.169-1.871,4.181-6.432.146.222-4.619.8-4.555.772-.333.053.187-.275,4.262-6.432,1.251-1.842A6.505,6.505,0,0,1,226.7,325.22Z" transform="translate(-138.625 -230.006)" fill="#e0e0e0"/>
      <path id="Path_1611" data-name="Path 1611" d="M201.516,344.6a4.181,4.181,0,0,1-.4.7l-1.169,1.889-4.169,6.473-.146-.222,4.549-.784,4.625-.784.333-.053-.193.275-4.268,6.356-1.257,1.824a4.2,4.2,0,0,1-.479.631,5.969,5.969,0,0,1,.4-.69c.3-.468.7-1.093,1.169-1.865l4.181-6.432.146.222-4.619.8-4.555.766-.333.058.187-.281,4.262-6.432c.515-.76.936-1.38,1.257-1.842a5.346,5.346,0,0,1,.479-.608Z" transform="translate(-128.172 -238.055)" fill="#e0e0e0"/>
      <path id="Path_1612" data-name="Path 1612" d="M255.954,325a5.675,5.675,0,0,1-.4.7l-1.169,1.889-4.169,6.473-.146-.222,4.549-.784,4.625-.783.333-.053-.187.275-4.274,6.356c-.515.748-.936,1.362-1.257,1.818a4.04,4.04,0,0,1-.479.637,5.633,5.633,0,0,1,.4-.69l1.169-1.865,4.181-6.432.146.222-4.619.8-4.555.772-.327.058.181-.281,4.262-6.432,1.257-1.842a3.953,3.953,0,0,1,.474-.608Z" transform="translate(-150.785 -229.915)" fill="#e0e0e0"/>
      <path id="Path_1613" data-name="Path 1613" d="M280.793,369.738a4.774,4.774,0,0,1-.585-.526l-1.6-1.544-5.5-5.391.246-.1c-.047,1.438-.094,2.994-.146,4.613s-.117,3.228-.17,4.678v.339l-.24-.24-5.356-5.467-1.532-1.6a5.071,5.071,0,0,1-.526-.585,5.066,5.066,0,0,1,.585.526l1.59,1.538,5.438,5.391-.251.1c.047-1.462.1-3.04.152-4.678s.117-3.175.17-4.613v-.333l.234.234,5.42,5.473,1.549,1.6A4.685,4.685,0,0,1,280.793,369.738Z" transform="translate(-157.263 -245.219)" fill="#e0e0e0"/>
      <path id="Path_1614" data-name="Path 1614" d="M128.5,308.94a5.19,5.19,0,0,1-.4.7l-1.169,1.889L122.769,318l-.146-.222,4.549-.789,4.625-.778.333-.058-.187.281-4.274,6.35-1.251,1.824a4.769,4.769,0,0,1-.479.631,4.475,4.475,0,0,1,.4-.684l1.169-1.871c1.058-1.62,2.508-3.841,4.181-6.432l.146.222-4.619.8-4.555.772-.327.053.181-.275c1.713-2.573,3.187-4.795,4.262-6.432l1.257-1.842A4.918,4.918,0,0,1,128.5,308.94Z" transform="translate(-97.855 -223.245)" fill="#e0e0e0"/>
      <path id="Path_1615" data-name="Path 1615" d="M93.35,382.873a4.291,4.291,0,0,1,.538.585l1.427,1.713,4.847,5.982-.257.07c.21-1.421.433-2.964.672-4.572s.474-3.192.69-4.637l.047-.333.21.269,4.713,6.034,1.339,1.754a4.678,4.678,0,0,1,.456.649,5.175,5.175,0,0,1-.532-.585l-1.4-1.707-4.765-5.97.257-.064c-.21,1.444-.439,3.011-.678,4.637s-.468,3.146-.684,4.567l-.047.333-.21-.263L95.2,385.288l-1.362-1.754a6.089,6.089,0,0,1-.485-.661Z" transform="translate(-85.82 -253.454)" fill="#e0e0e0"/>
      <path id="Path_1616" data-name="Path 1616" d="M173.3,335.3a5.042,5.042,0,0,1-.8.105l-2.222.193-7.683.585.094-.246,3.368,3.157,3.409,3.216.246.234h-.339l-7.642.421-2.21.094a4.6,4.6,0,0,1-.8,0,5.482,5.482,0,0,1,.789-.1l2.2-.175,7.636-.526-.088.246-3.421-3.2-3.356-3.169-.246-.234h.333l7.689-.462,2.222-.111A5.349,5.349,0,0,1,173.3,335.3Z" transform="translate(-112.972 -234.188)" fill="#e0e0e0"/>
      <path id="Path_1617" data-name="Path 1617" d="M161.49,384.745a6.492,6.492,0,0,1,.55.585l1.456,1.684,4.976,5.882-.257.07c.181-1.427.38-2.97.585-4.578s.415-3.2.585-4.648l.047-.339.21.263,4.841,5.935,1.374,1.754a5.848,5.848,0,0,1,.468.643,4.792,4.792,0,0,1-.544-.585l-1.438-1.678-4.911-5.847.251-.076c-.181,1.45-.38,3.017-.585,4.648s-.409,3.157-.585,4.584l-.047.333-.21-.257-4.894-5.952-1.392-1.754A4.165,4.165,0,0,1,161.49,384.745Z" transform="translate(-114.118 -254.168)" fill="#e0e0e0"/>
      <path id="Path_1618" data-name="Path 1618" d="M111.547,348.735a4.751,4.751,0,0,1-.8.105l-2.216.187-7.683.585.088-.251,3.374,3.163,3.409,3.216.246.234h-.339l-7.642.421-2.21.094a4.6,4.6,0,0,1-.778,0,4.588,4.588,0,0,1,.789-.1l2.2-.175,7.636-.532-.088.251-3.421-3.2-3.362-3.169-.24-.234h.333l7.689-.468,2.222-.105A5.215,5.215,0,0,1,111.547,348.735Z" transform="translate(-87.336 -239.769)" fill="#e0e0e0"/>
      <path id="Path_1619" data-name="Path 1619" d="M145.561,384.567a4.731,4.731,0,0,1-.8.1l-2.222.193-7.683.585.094-.251,3.368,3.163,3.409,3.216.246.234h-.333L134,392.22l-2.21.1a4.6,4.6,0,0,1-.8,0,4.582,4.582,0,0,1,.789-.1l2.2-.175,7.636-.532-.088.251-3.421-3.2-3.356-3.157-.246-.228h.333l7.689-.468,2.228-.105a4.424,4.424,0,0,1,.8-.035Z" transform="translate(-101.452 -254.651)" fill="#e0e0e0"/>
      <path id="Path_1620" data-name="Path 1620" d="M222.371,293.406a5.045,5.045,0,0,1-.8.105l-2.222.187-7.677.585.088-.246,3.368,3.157,3.409,3.216.246.234h-.333l-7.648.421-2.21.094a4.6,4.6,0,0,1-.8,0,4.588,4.588,0,0,1,.789-.1l2.2-.175,7.642-.526-.094.246-3.409-3.2-3.356-3.169-.246-.234h.333l7.689-.468,2.228-.105a5.257,5.257,0,0,1,.789-.023Z" transform="translate(-133.351 -216.792)" fill="#e0e0e0"/>
      <path id="Path_1621" data-name="Path 1621" d="M194.434,381.948s9.835-2.836,13.091-3.666c1.269-.322,6.7,2.543,10.454,4.929,0,0,5.169,3.064,4.754,4.005-.462,1.041-2.339.83-5.408-.585,0,0,1.064,3.081-1.023,3.011,0,0,1.035,3.333-.918,3.678s-2.409-3.906-4.128-4.134-5.262-.462-5.262-.462-2.964,4.911-5.262,5.262a42.306,42.306,0,0,1-7.6-.275Z" transform="translate(-127.258 -252.033)" fill="#ffbe9d"/>
      <path id="Path_1622" data-name="Path 1622" d="M224.07,385.73a16.727,16.727,0,0,1,2.748,1.549,16.325,16.325,0,0,1,2.584,1.813,32.157,32.157,0,0,1-5.332-3.362Z" transform="translate(-140.107 -255.136)" fill="#eb996e"/>
      <path id="Path_1623" data-name="Path 1623" d="M223.08,389a43.839,43.839,0,0,1,6.385,2.923,20.468,20.468,0,0,1-3.263-1.333A20.035,20.035,0,0,1,223.08,389Z" transform="translate(-139.696 -256.494)" fill="#eb996e"/>
      <path id="Path_1624" data-name="Path 1624" d="M224.88,396.81a16.371,16.371,0,0,1,4.4.585,16.477,16.477,0,0,1-4.4-.585Z" transform="translate(-140.444 -259.737)" fill="#eb996e"/>
      <path id="Path_1625" data-name="Path 1625" d="M167.72,190.808a2.017,2.017,0,0,1-2.848,2.386c-1.333-.672-1.5-2.514-1.24-3.982s.76-3.04.146-4.4a10.056,10.056,0,0,0-2.292-2.52,6.467,6.467,0,0,1-1.8-5.473,5.432,5.432,0,0,1,3.73-4.268c1.959-.544,4.374.058,5.847-1.362,1.058-1.029,1.123-2.707,1.941-3.935,1.269-1.906,3.953-2.21,6.221-1.9s4.572,1.041,6.794.485c1.854-.462,3.374-1.754,5.116-2.549a10.016,10.016,0,0,1,13.039,13.752,6.432,6.432,0,0,1-3.1,3.07" transform="translate(-113.343 -162.379)" fill="#263238"/>
      <path id="Path_1626" data-name="Path 1626" d="M184.277,247.539h0a11.267,11.267,0,0,0,11.244-11.425l-.146-10.747s9.028-.906,9.624-9.852.17-29.592.17-29.592h0a31.176,31.176,0,0,0-31.469,2.2l-1.38.953.672,47.326A11.267,11.267,0,0,0,184.277,247.539Z" transform="translate(-118.616 -170.808)" fill="#ffbe9d"/>
      <path id="Path_1627" data-name="Path 1627" d="M223.618,214.1a1.339,1.339,0,0,1,0-2.66.45.45,0,0,1,.216,0,1.339,1.339,0,0,1,0,2.66.672.672,0,0,1-.216,0Z" transform="translate(-139.427 -182.749)" fill="#263238"/>
      <path id="Path_1628" data-name="Path 1628" d="M224.233,210.067c-.146.152-.988-.585-2.222-.649s-2.163.515-2.286.351.088-.345.5-.62a3.035,3.035,0,0,1,3.6.24C224.192,209.716,224.309,210.032,224.233,210.067Z" transform="translate(-138.289 -181.603)" fill="#263238"/>
      <path id="Path_1629" data-name="Path 1629" d="M201.617,211.415a1.3,1.3,0,1,1-1.813.327A1.3,1.3,0,0,1,201.617,211.415Z" transform="translate(-129.933 -182.647)" fill="#263238"/>
      <path id="Path_1630" data-name="Path 1630" d="M201.244,210.677c-.152.152-.994-.585-2.222-.649s-2.163.515-2.292.351c-.064-.076.094-.345.5-.62a3.035,3.035,0,0,1,3.6.24C201.2,210.326,201.314,210.612,201.244,210.677Z" transform="translate(-128.748 -181.856)" fill="#263238"/>
      <path id="Path_1631" data-name="Path 1631" d="M211.877,221.888a6.11,6.11,0,0,1,2.017-.316c.322,0,.585-.076.614-.246a1.825,1.825,0,0,0-.181-.936c-.275-.836-.55-1.678-.842-2.561-1.169-3.643-1.935-6.642-1.754-6.7s1.269,2.847,2.421,6.49c.269.889.532,1.754.783,2.573a2.07,2.07,0,0,1,.105,1.351.836.836,0,0,1-.585.485,1.912,1.912,0,0,1-.555.041A5.8,5.8,0,0,1,211.877,221.888Z" transform="translate(-134.972 -182.624)" fill="#263238"/>
      <path id="Path_1632" data-name="Path 1632" d="M204.924,231.49a23.1,23.1,0,0,0,5.952,2.087,3.415,3.415,0,0,1-4.093,1.134C204.146,233.583,204.924,231.49,204.924,231.49Z" transform="translate(-132.112 -191.081)" fill="#fff"/>
      <path id="Path_1633" data-name="Path 1633" d="M203.645,252.663a20.868,20.868,0,0,1-11.5-3.953s2.409,6.59,11.384,6.274Z" transform="translate(-126.851 -198.232)" fill="#eb996e"/>
      <path id="Path_1634" data-name="Path 1634" d="M203.632,186.518s-5.409,2.748-12.571-.655c-4.678-2.234-10.156-3.268-11.337-2.3s-1.339,5.759-5.923,7.25c0,0,.5,9.156-3.163,8.9s-1.649-14.483-1.649-14.483l8.847-4.537,9.712-2.029,9.209,1.117,7.145,1.807Z" transform="translate(-117.003 -169.14)" fill="#263238"/>
      <path id="Path_1635" data-name="Path 1635" d="M168.945,209.346c-.146-.076-6.052-2.158-6.186,3.976s6.046,5.005,6.058,4.83S168.945,209.346,168.945,209.346Z" transform="translate(-114.644 -181.718)" fill="#ffbe9d"/>
      <path id="Path_1636" data-name="Path 1636" d="M168.09,217.178a1.8,1.8,0,0,1-.292.152,1.064,1.064,0,0,1-.8,0,2.629,2.629,0,0,1-1.169-2.4,3.637,3.637,0,0,1,.333-1.526,1.245,1.245,0,0,1,.824-.8.585.585,0,0,1,.626.31c.076.17.035.292.064.3s.134-.1.094-.351a.7.7,0,0,0-.234-.392.813.813,0,0,0-.585-.17,1.5,1.5,0,0,0-1.14.924,3.713,3.713,0,0,0-.409,1.7,2.763,2.763,0,0,0,1.5,2.684,1.169,1.169,0,0,0,.982-.14C168.09,217.33,168.09,217.189,168.09,217.178Z" transform="translate(-115.742 -183.112)" fill="#eb996e"/>
      <path id="Path_1637" data-name="Path 1637" d="M168,176.7a3.374,3.374,0,0,1,3.789,1.415,9.507,9.507,0,0,0-1.754-1.052A9.94,9.94,0,0,0,168,176.7Z" transform="translate(-116.822 -168.271)" fill="#263238"/>
      <path id="Path_1638" data-name="Path 1638" d="M174.136,170.52c.111,0-.058,1.292.152,2.824a12.108,12.108,0,0,0,.859,2.672,2.611,2.611,0,0,1-.515-.672,5.742,5.742,0,0,1-.643-1.953,6.379,6.379,0,0,1,.146-2.871Z" transform="translate(-119.268 -165.76)" fill="#263238"/>
      <path id="Path_1639" data-name="Path 1639" d="M217.4,205.391c-.035-.07.228-.286.725-.485a5.531,5.531,0,0,1,4.093.041c.491.21.754.427.719.5-.076.164-1.257-.3-2.772-.3S217.468,205.572,217.4,205.391Z" transform="translate(-137.335 -179.885)" fill="#263238"/>
      <path id="Path_1640" data-name="Path 1640" d="M194,203.213c-.035-.07.228-.281.725-.485a5.485,5.485,0,0,1,2.052-.368,5.346,5.346,0,0,1,2.053.41c.49.21.747.426.718.5a27.034,27.034,0,0,0-2.777-.3C195.249,202.962,194.08,203.377,194,203.213Z" transform="translate(-127.617 -178.983)" fill="#263238"/>
      <path id="Path_1641" data-name="Path 1641" d="M215.533,207.6a1.678,1.678,0,0,1,0,.363c0,.257,0,.585.029.988s0,.947.035,1.532a5.654,5.654,0,0,0,.292,1.988,5.18,5.18,0,0,0,3.707,3.374,4.9,4.9,0,0,0,1.5.129,4.812,4.812,0,0,0,1.526-.322,5.146,5.146,0,0,0,2.526-2.041,5.262,5.262,0,0,0,.819-2.994V207.6l.14.14-7.6-.07-2.2-.041h-.8a5.886,5.886,0,0,1,.754-.035l2.169-.041,7.683-.07h.193v3.163a5.52,5.52,0,0,1-.86,3.157,5.438,5.438,0,0,1-2.678,2.158,5.069,5.069,0,0,1-1.62.333,5.217,5.217,0,0,1-1.573-.146,5.362,5.362,0,0,1-3.847-3.578,5.806,5.806,0,0,1-.257-2.07c0-.585,0-1.128.029-1.573s0-.719.029-.976A2.2,2.2,0,0,1,215.533,207.6Z" transform="translate(-136.529 -181.109)" fill="#263238"/>
      <path id="Path_1642" data-name="Path 1642" d="M190.961,207.085v1.351c0,.433,0,.947.029,1.538a5.981,5.981,0,0,0,.292,1.988A5.344,5.344,0,0,0,192.575,214a5.192,5.192,0,0,0,2.415,1.327,5.177,5.177,0,0,0,5.549-2.228,5.262,5.262,0,0,0,.824-2.994v-3.023l.14.14-7.6-.07-2.2-.035h-.8a5.848,5.848,0,0,1,.748-.035l2.169-.035,7.683-.07h.14v3.163a5.555,5.555,0,0,1-.865,3.157,5.443,5.443,0,0,1-2.672,2.152,5.1,5.1,0,0,1-1.62.333,5.263,5.263,0,0,1-1.579-.146,5.392,5.392,0,0,1-3.847-3.578,5.806,5.806,0,0,1-.257-2.07c0-.585,0-1.128.035-1.573a8.88,8.88,0,0,0,0-.976,1.17,1.17,0,0,1,.123-.357Z" transform="translate(-126.288 -180.902)" fill="#263238"/>
      <path id="Path_1643" data-name="Path 1643" d="M212.944,208.3a13.447,13.447,0,0,1-4.034,0A12.969,12.969,0,0,1,212.944,208.3Z" transform="translate(-133.812 -181.383)" fill="#263238"/>
      <path id="Path_1644" data-name="Path 1644" d="M172,208.4a52.92,52.92,0,0,1,5.59-.17,53.46,53.46,0,0,1,5.6.135,49.306,49.306,0,0,1-5.59.17,50.017,50.017,0,0,1-5.6-.134Z" transform="translate(-118.483 -181.414)" fill="#263238"/>
      <path id="Path_1645" data-name="Path 1645" d="M274.87,363.964a14.384,14.384,0,0,0,13.682,7.525h0a14.384,14.384,0,0,0,13.22-12.214l3.391-38.818L291.581,317.1l-5.549,30.4S283.132,360.245,274.87,363.964Z" transform="translate(-161.205 -226.634)" fill="#ffbe9d"/>
      <path id="Path_1646" data-name="Path 1646" d="M303.24,303.664l.45-6.812s1.924-15.284,1.924-16.781c0-1.719.824-2.14,1.462-2.093.988.064,1.69,1.286,1.754,2.766,0,.509-.047,8.589-.047,8.589a18.615,18.615,0,0,1,1.561-2.181c1.169-1.514,4-2.38,6.882-2.286s3.672.374,3.689,1.491a1.433,1.433,0,0,1-.585,1.088,2.83,2.83,0,0,1-1.9.655c-4.613-.082-5.847,2.38-5.847,2.38l-.058.895s2.8-2.006,5.034-1.169a2.637,2.637,0,0,1,.889.55,3.608,3.608,0,0,1,3.128,5.379,1.5,1.5,0,0,1-1.45.906,1.871,1.871,0,0,1-.813-.5,3.6,3.6,0,0,0-.415-.3l-.515,2.473s-1.456,5.5-1.818,7.964" transform="translate(-172.987 -210.385)" fill="#ffbe9d"/>
      <path id="Path_1647" data-name="Path 1647" d="M305.369,313.534a2.1,2.1,0,0,0,2.169-1.134c.456-.748.649-1.631,1.047-2.415,1.2-2.339,4.093-3.45,5.2-5.847.152-.333.234-.789-.058-1.012s-.655-.041-.953.123l-7.6,4.21" transform="translate(-173.788 -220.788)" fill="#ffbe9d"/>
      <path id="Path_1648" data-name="Path 1648" d="M305.16,307.293a3.934,3.934,0,0,1,.778-.538c.515-.322,1.269-.766,2.2-1.31l3.3-1.889.953-.538a1.707,1.707,0,0,1,1.257-.357.719.719,0,0,1,.5.649,1.52,1.52,0,0,1-.123.7,5.631,5.631,0,0,1-.655,1.1,33.429,33.429,0,0,1-3.4,3.228,6.5,6.5,0,0,0-1.2,1.549c-.286.538-.468,1.1-.69,1.608a3.058,3.058,0,0,1-1.754,1.894c-.626.187-.976,0-.953-.035a2.339,2.339,0,0,0,.889-.146,2.964,2.964,0,0,0,1.509-1.848,17.146,17.146,0,0,1,.649-1.666,6.543,6.543,0,0,1,1.245-1.678,41.3,41.3,0,0,0,3.321-3.2,5.108,5.108,0,0,0,.585-.988c.146-.333.123-.667-.064-.7a1.777,1.777,0,0,0-.877.3l-.971.526-3.35,1.824c-.959.509-1.754.906-2.28,1.169A3.327,3.327,0,0,1,305.16,307.293Z" transform="translate(-173.784 -220.633)" fill="#eb996e"/>
      <path id="Path_1649" data-name="Path 1649" d="M318.9,297.034a3.508,3.508,0,0,1,.532-1.555,2.76,2.76,0,0,1,1.4-1.017,7.018,7.018,0,0,1,2.193-.351,11.827,11.827,0,0,0,2.28-.2,3.654,3.654,0,0,0,1.7-.848,1.432,1.432,0,0,0,.456-1.169.859.859,0,0,0-.152-.444c-.029,0,0,.17.029.45a1.351,1.351,0,0,1-.491,1.023,3.672,3.672,0,0,1-1.6.725,12.485,12.485,0,0,1-2.228.164,6.946,6.946,0,0,0-2.275.357,2.923,2.923,0,0,0-1.491,1.169,2.567,2.567,0,0,0-.386,1.216A.877.877,0,0,0,318.9,297.034Z" transform="translate(-179.469 -215.982)" fill="#eb996e"/>
      <path id="Path_1650" data-name="Path 1650" d="M312.7,281.73a8.7,8.7,0,0,0,0,1.608c0,1.1,0,2.415.041,3.865s0,2.766,0,3.865a9.23,9.23,0,0,0,.035,1.608,6.774,6.774,0,0,0,.193-1.6c.07-.988.117-2.339.111-3.871s-.064-2.888-.134-3.877a7.526,7.526,0,0,0-.246-1.6Z" transform="translate(-176.901 -211.945)" fill="#eb996e"/>
      <path id="Path_1651" data-name="Path 1651" d="M322.057,302.591a1.88,1.88,0,0,0,.468-.181,1.5,1.5,0,0,1,1.24-.058.807.807,0,0,1,.421.672,4.14,4.14,0,0,1-.076,1.041,1.754,1.754,0,0,0,.193,1.263,1.532,1.532,0,0,0,1.228.643,1.754,1.754,0,0,0,1.263-.55,2.117,2.117,0,0,0,.585-1.123,7.081,7.081,0,0,0-.029-2.07,4.036,4.036,0,0,0-.415-1.327c-.164-.292-.316-.4-.327-.392s.094.158.216.444a4.787,4.787,0,0,1,.3,1.31,7.6,7.6,0,0,1-.029,1.982,1.754,1.754,0,0,1-1.567,1.4,1.222,1.222,0,0,1-.977-.5,1.532,1.532,0,0,1-.158-1.052,4.209,4.209,0,0,0,.047-1.117,1.035,1.035,0,0,0-.585-.836,1.538,1.538,0,0,0-1.392.152C322.185,302.462,322.022,302.55,322.057,302.591Z" transform="translate(-180.799 -219.744)" fill="#eb996e"/>
      <path id="Path_1652" data-name="Path 1652" d="M329.743,304.939a.643.643,0,0,0,.047.456,1.421,1.421,0,0,0,.935.83,1.865,1.865,0,0,0,1.754-.55,3.035,3.035,0,0,0,.789-2.122,3.719,3.719,0,0,0-.69-2.157,3.473,3.473,0,0,0-1.444-1.169,3.274,3.274,0,0,0-1.2-.286c-.292,0-.45,0-.45.047a5.468,5.468,0,0,1,1.561.444,3.468,3.468,0,0,1,1.3,1.117,3.544,3.544,0,0,1,.585,1.988,2.83,2.83,0,0,1-.678,1.918,1.643,1.643,0,0,1-1.509.532,1.316,1.316,0,0,1-.871-.661C329.784,305.1,329.784,304.939,329.743,304.939Z" transform="translate(-183.884 -219.508)" fill="#eb996e"/>
      <path id="Path_1653" data-name="Path 1653" d="M317.569,315.35a1.281,1.281,0,0,0-.772,0,3.052,3.052,0,0,0-1.684,1.017l.269.082a8.56,8.56,0,0,0-.175-1.076A6.911,6.911,0,0,0,313.54,312a17.5,17.5,0,0,1,1.356,3.444c.082.363.14.713.181,1.041l.047.363.228-.286a3.187,3.187,0,0,1,1.491-1.023C317.282,315.4,317.569,315.391,317.569,315.35Z" transform="translate(-177.264 -224.516)" fill="#eb996e"/>
      <path id="Path_1654" data-name="Path 1654" d="M320.672,294.216c-.076.035.234.585.947.918s1.345.14,1.316.058-.585-.076-1.169-.351S320.748,294.158,320.672,294.216Z" transform="translate(-180.221 -217.128)" fill="#eb996e"/>
      <path id="Path_1655" data-name="Path 1655" d="M287.163,329.45l17.067,1.222s-2.625,30.2-3.134,34.883S297.588,377.3,287.163,377.3s-12.366-3.549-17-10.858c5.467-3.789,14.15-15.1,14.15-15.1Z" transform="translate(-159.249 -231.763)" fill="#ffd1e0"/>
      <path id="Path_1656" data-name="Path 1656" d="M309.4,336.4a5.761,5.761,0,0,1-.316.743l-.953,2.011-3.368,6.952-.17-.2,4.426-1.316,4.5-1.321.327-.094-.158.3-3.508,6.812-1.035,1.959a4.6,4.6,0,0,1-.4.684,6.19,6.19,0,0,1,.316-.731c.246-.5.585-1.169.959-1.994l3.4-6.859.17.2-4.491,1.333-4.432,1.3-.322.094.152-.3,3.491-6.882c.427-.813.772-1.479,1.029-1.976a4.835,4.835,0,0,1,.392-.713Z" transform="translate(-173.443 -234.649)" fill="#e0e0e0"/>
      <path id="Path_1657" data-name="Path 1657" d="M299.891,386.076a5.045,5.045,0,0,1-.8.105l-2.222.193-7.683.585.094-.251,3.368,3.157,3.409,3.216.246.234h-.339l-7.642.421-2.21.094a4.6,4.6,0,0,1-.8,0,5.122,5.122,0,0,1,.789-.094l2.2-.181,7.636-.526-.088.251-3.421-3.21-3.356-3.169-.246-.228h.333l7.689-.462,2.228-.111A5.255,5.255,0,0,1,299.891,386.076Z" transform="translate(-165.544 -255.277)" fill="#e0e0e0"/>
    </g>
    <g id="freepik--Shield--inject-2" transform="translate(185.664 158.941)">
      <path id="Path_1658" data-name="Path 1658" d="M334.688,197.13l-17.407-6.25-17.214,6.169c-2.2,1.035-4.128,1.661-4.128,3.707v10.209a38.59,38.59,0,0,0,5.654,20.33,35.38,35.38,0,0,0,15.857,14c7.016-2.286,12.279-8.39,15.524-13.606a38.59,38.59,0,0,0,5.683-20.33v-9.18C338.658,199.259,337.1,197.832,334.688,197.13Z" transform="translate(-295.939 -190.857)" fill="#ffd1e0"/>
      <g id="Group_696" data-name="Group 696" transform="translate(0 0.047)" opacity="0.3">
        <path id="Path_1659" data-name="Path 1659" d="M317.451,239.374a28.065,28.065,0,0,1-12.542-11.168,30.533,30.533,0,0,1-4.5-16.073V205a4.521,4.521,0,0,1,2.923-4.052l13.951-5.216V190.92l-17.219,6.145c-1.807.789-4.128,1.661-4.128,3.707v10.209a38.59,38.59,0,0,0,5.654,20.33,35.38,35.38,0,0,0,15.857,14Z" transform="translate(-295.939 -190.92)"/>
      </g>
      <g id="Group_697" data-name="Group 697" transform="translate(21.336)" opacity="0.4">
        <path id="Path_1660" data-name="Path 1660" d="M332.605,245.264a21.125,21.125,0,0,0,3.421-1.462,30.826,30.826,0,0,0,7.262-5.7,38.933,38.933,0,0,0,5.034-6.765,37.128,37.128,0,0,0,5.49-20.529v-8.426c0-4.2-2.163-4.508-3.976-5.3l-17.407-6.25v4.812l14.115,5.3A4.52,4.52,0,0,1,349.468,205v7.163a30.51,30.51,0,0,1-4.5,16.068,27.481,27.481,0,0,1-12.378,11.109Z" transform="translate(-332.43 -190.84)"/>
      </g>
      <path id="Path_1661" data-name="Path 1661" d="M332.391,222.23v-1.38a4.52,4.52,0,0,0-9.04,0v1.4a2.526,2.526,0,0,0-2.152,2.5v8.127a2.526,2.526,0,0,0,2.526,2.526h8.466a2.526,2.526,0,0,0,2.526-2.526V224.75A2.526,2.526,0,0,0,332.391,222.23Zm-3.292,8.618h-2.21l.345-1.6a1.339,1.339,0,1,1,1.462,0C328.848,229.848,329.1,230.848,329.1,230.848Zm2.339-8.63h-7.11V220.85a3.549,3.549,0,0,1,7.092,0Z" transform="translate(-306.43 -201.426)" fill="#fff" opacity="0.5"/>
      <path id="Path_1662" data-name="Path 1662" d="M308.125,219.723a5.262,5.262,0,0,1-.263-1.415,24.079,24.079,0,0,1-.14-3.467,18.883,18.883,0,0,1,.123-1.906,4.094,4.094,0,0,1,.392-1.538,1.719,1.719,0,0,1,.76-.766c.24-.111.386-.105.386-.088a1.947,1.947,0,0,0-.953.947,4.28,4.28,0,0,0-.3,1.468c-.047.585-.082,1.222-.1,1.894-.041,1.339,0,2.555.053,3.438a9.164,9.164,0,0,1,.047,1.433Z" transform="translate(-300.827 -199.019)" fill="#fff"/>
      <path id="Path_1663" data-name="Path 1663" d="M308.729,232.507c-.082,0-.158-.415-.17-.936s.053-.941.134-.941.158.415.17.936S308.816,232.507,308.729,232.507Z" transform="translate(-301.179 -207.365)" fill="#fff"/>
    </g>
    <g id="freepik--Device--inject-2" transform="translate(121.546 237.519)">
      <path id="Path_1664" data-name="Path 1664" d="M240.681,325.23l-19.406,47.992H186.28v2.169H290.515l21.324-50.162Z" transform="translate(-186.28 -325.23)" fill="#263238"/>
      <path id="Path_1665" data-name="Path 1665" d="M325.2,369.825c-.7,2.415-2.748,3.941-4.572,3.415s-2.731-2.923-2.029-5.338,2.754-3.941,4.578-3.415S325.91,367.41,325.2,369.825Z" transform="translate(-241.134 -341.49)" fill="#fafafa"/>
    </g>
  </g>
</svg>
