<svg width="16" height="22" viewBox="0 0 16 22" fill="none" xmlns="http://www.w3.org/2000/svg">
<path d="M11.7123 3.28769C12.0052 3.58058 12.4801 3.58058 12.773 3.28769C13.0659 2.9948 13.0659 2.51992 12.773 2.22703L11.7123 3.28769ZM5.34835 4.34835C5.05546 4.64124 5.05546 5.11612 5.34835 5.40901C5.64124 5.7019 6.11612 5.7019 6.40901 5.40901L5.34835 4.34835ZM3.22703 2.22703C2.93414 2.51992 2.93414 2.9948 3.22703 3.28769C3.51992 3.58058 3.9948 3.58058 4.28769 3.28769L3.22703 2.22703ZM9.59099 5.40901C9.88388 5.7019 10.3588 5.7019 10.6517 5.40901C10.9445 5.11612 10.9445 4.64124 10.6517 4.34835L9.59099 5.40901ZM11.3218 6.99614C10.9477 6.8184 10.5003 6.97762 10.3226 7.35176C10.1448 7.72591 10.304 8.17329 10.6782 8.35103L11.3218 6.99614ZM5.32182 8.35103C5.69596 8.17329 5.85518 7.72591 5.67745 7.35176C5.49971 6.97762 5.05232 6.8184 4.67818 6.99614L5.32182 8.35103ZM8.75 7C8.75 6.58579 8.41421 6.25 8 6.25C7.58579 6.25 7.25 6.58579 7.25 7H8.75ZM7.25 9C7.25 9.41421 7.58579 9.75 8 9.75C8.41421 9.75 8.75 9.41421 8.75 9H7.25ZM8 1.75C9.44995 1.75 10.7614 2.3368 11.7123 3.28769L12.773 2.22703C11.5523 1.00634 9.86375 0.25 8 0.25V1.75ZM6.40901 5.40901C6.817 5.00102 7.37847 4.75 8 4.75V3.25C6.96467 3.25 6.02615 3.67055 5.34835 4.34835L6.40901 5.40901ZM4.28769 3.28769C5.23857 2.3368 6.55005 1.75 8 1.75V0.25C6.13625 0.25 4.44772 1.00634 3.22703 2.22703L4.28769 3.28769ZM8 4.75C8.62153 4.75 9.183 5.00102 9.59099 5.40901L10.6517 4.34835C9.97386 3.67055 9.03533 3.25 8 3.25V4.75ZM14.25 14C14.25 17.4517 11.4518 20.25 8 20.25V21.75C12.2802 21.75 15.75 18.2802 15.75 14H14.25ZM8 20.25C4.54822 20.25 1.75 17.4517 1.75 14H0.25C0.25 18.2802 3.71979 21.75 8 21.75V20.25ZM10.6782 8.35103C12.7915 9.35495 14.25 11.5079 14.25 14H15.75C15.75 10.9072 13.9384 8.23915 11.3218 6.99614L10.6782 8.35103ZM1.75 14C1.75 11.5079 3.20852 9.35495 5.32182 8.35103L4.67818 6.99614C2.06159 8.23915 0.25 10.9072 0.25 14H1.75ZM7.25 7V9H8.75V7H7.25Z" fill="#828A89"/>
</svg>
