<svg width="22" height="22" viewBox="0 0 22 22" fill="none" xmlns="http://www.w3.org/2000/svg">
<path d="M1 7V5C1 2.79086 2.79086 1 5 1H7M15 1H17C19.2091 1 21 2.79086 21 5V7M21 15V17C21 19.2091 19.2091 21 17 21H15M7 21H5C2.79086 21 1 19.2091 1 17V15.5556M11 16C14.0779 16 16.7498 13.5735 18.0877 12.1013C18.6638 11.4674 18.6638 10.5326 18.0877 9.8987C16.7498 8.42646 14.0779 6 11 6C7.9221 6 5.25017 8.42646 3.91227 9.8987C3.33619 10.5326 3.33619 11.4674 3.91227 12.1013C5.25017 13.5735 7.9221 16 11 16ZM13 11C13 12.1046 12.1046 13 11 13C9.89543 13 9 12.1046 9 11C9 9.89543 9.89543 9 11 9C12.1046 9 13 9.89543 13 11Z" stroke="white" stroke-width="1.5" stroke-linecap="round" stroke-linejoin="round"/>
</svg>
