<svg width="24" height="24" viewBox="0 0 24 24" fill="none" xmlns="http://www.w3.org/2000/svg">
<path d="M23.761 12.2737C23.762 11.456 23.6929 10.6397 23.5543 9.8338H12.238V14.4553H18.7195C18.5869 15.1934 18.3061 15.8971 17.8943 16.5238C17.4824 17.1505 16.9478 17.6873 16.3229 18.1019V21.1018H20.1911C22.456 19.0135 23.761 15.9253 23.761 12.2737Z" fill="#4285F4"/>
<path d="M12.2382 24C15.4764 24 18.203 22.9367 20.1912 21.1034L16.323 18.1035C15.2464 18.8335 13.8598 19.2502 12.2382 19.2502C9.10826 19.2502 6.45168 17.1402 5.50171 14.297H1.51685V17.3885C2.51559 19.3759 4.04706 21.0466 5.94027 22.2141C7.83348 23.3816 10.0139 23.9999 12.2382 24Z" fill="#34A853"/>
<path d="M5.50163 14.297C4.99941 12.8071 4.99941 11.1937 5.50163 9.70381V6.61224H1.51676C0.676579 8.28411 0.239014 10.1293 0.239014 12.0004C0.239014 13.8715 0.676579 15.7167 1.51676 17.3886L5.50163 14.297Z" fill="#FBBC04"/>
<path d="M12.2382 4.75063C13.9494 4.72267 15.6029 5.36924 16.8413 6.55057L20.2662 3.12568C18.0945 1.08588 15.2174 -0.03401 12.2382 0.000787286C10.0139 0.000888658 7.83348 0.619191 5.94027 1.78667C4.04706 2.95414 2.51559 4.62484 1.51685 6.61224L5.50171 9.7038C6.45168 6.86056 9.10826 4.75063 12.2382 4.75063Z" fill="#EA4335"/>
</svg>
