<svg width="164" height="148" viewBox="0 0 164 148" fill="none" xmlns="http://www.w3.org/2000/svg">
<g clip-path="url(#clip0_1622_7563)">
<path d="M69.7347 86.3019H40.6599C40.1765 86.3019 39.7847 85.9101 39.7847 85.4267V78.4938C39.7847 78.0104 40.1765 77.6186 40.6599 77.6186H69.7347C70.2181 77.6186 70.6098 78.0104 70.6098 78.4938V85.4267C70.6098 85.9101 70.2181 86.3019 69.7347 86.3019ZM41.535 84.5515H68.8595V79.369H41.535V84.5515Z" fill="white"/>
<path d="M45.7081 100H42.9496C42.6761 100 42.4183 99.872 42.2525 99.6543C42.0873 99.4365 42.0329 99.1534 42.1061 98.8896L45.9231 85.1915C46.053 84.726 46.5359 84.4539 47.0009 84.5833C47.4668 84.7131 47.7389 85.1956 47.6091 85.6615L44.1023 98.2497H45.0438L48.6822 85.1919C48.812 84.7265 49.2954 84.4544 49.7604 84.5838C50.2263 84.7136 50.4984 85.1961 50.3686 85.662L46.5516 99.3601C46.4457 99.7381 46.1013 100 45.7081 100Z" fill="white"/>
<path d="M67.4452 100H64.6871C64.2939 100 63.9496 99.738 63.8441 99.3596L60.0271 85.6615C59.9539 85.3977 60.0078 85.115 60.1731 84.8968C60.3388 84.679 60.5962 84.551 60.8701 84.551H63.6264C64.0195 84.551 64.3639 84.813 64.4693 85.1914L68.2882 98.8896C68.3614 99.1534 68.3075 99.436 68.1418 99.6543C67.977 99.872 67.7192 100 67.4452 100ZM65.3519 98.2496H66.2929L62.9621 86.3019H62.0224L65.3519 98.2496Z" fill="white"/>
<path d="M56.5767 86.3019H53.8185C53.3351 86.3019 52.9434 85.9101 52.9434 85.4267C52.9434 84.9433 53.3351 84.5515 53.8185 84.5515H56.5767C57.0601 84.5515 57.4519 84.9433 57.4519 85.4267C57.4519 85.9101 57.0601 86.3019 56.5767 86.3019Z" fill="white"/>
<path d="M65.1502 82.7233H45.2448C44.7614 82.7233 44.3696 82.3315 44.3696 81.8481C44.3696 81.3647 44.7614 80.973 45.2448 80.973H65.1502C65.6336 80.973 66.0254 81.3647 66.0254 81.8481C66.0254 82.3311 65.6336 82.7233 65.1502 82.7233Z" fill="white"/>
<path d="M59.3754 79.369H50.6134C50.1867 79.369 49.8216 79.061 49.7502 78.6402L47.6992 66.5203C47.6564 66.2666 47.7273 66.006 47.8935 65.8094C48.0602 65.6124 48.3046 65.4991 48.562 65.4991H61.4264C61.6842 65.4991 61.9286 65.6124 62.0948 65.8094C62.261 66.006 62.3324 66.2666 62.2891 66.5203L60.2381 78.6402C60.1672 79.061 59.8021 79.369 59.3754 79.369ZM51.3528 77.6186H58.6355L60.3905 67.2495H49.5983L51.3528 77.6186Z" fill="white"/>
<path d="M54.9945 67.1938C51.9251 67.1938 49.521 62.6278 49.521 56.7984C49.521 51.2228 54.2003 46.8211 54.3992 46.6365C54.7353 46.3252 55.2536 46.3252 55.5893 46.6365C55.7881 46.8211 60.4674 51.2228 60.4674 56.7984C60.4679 62.6273 58.0638 67.1938 54.9945 67.1938ZM54.9945 48.5392C53.8099 49.8517 51.2714 53.0974 51.2714 56.798C51.2714 61.8925 53.2335 65.443 54.9945 65.443C56.7554 65.443 58.7175 61.8925 58.7175 56.798C58.7175 53.0979 56.1795 49.8527 54.9945 48.5392Z" fill="white"/>
<path d="M54.9943 66.8052C54.5109 66.8052 54.1191 66.4135 54.1191 65.9301V52.5887C54.1191 52.1053 54.5109 51.7135 54.9943 51.7135C55.4777 51.7135 55.8695 52.1053 55.8695 52.5887V65.9301C55.8695 66.4135 55.4777 66.8052 54.9943 66.8052Z" fill="white"/>
<path d="M33.669 83.7762C33.3596 83.7762 33.0599 83.6119 32.9006 83.3218C28.3861 75.087 26 65.7427 26 56.298C26 25.255 51.255 0 82.298 0C113.341 0 138.596 25.255 138.596 56.298C138.596 65.7427 136.21 75.0875 131.695 83.3218C131.463 83.7454 130.931 83.9001 130.507 83.6685C130.084 83.436 129.928 82.9038 130.16 82.4802C134.534 74.5032 136.846 65.4499 136.846 56.2985C136.846 26.2209 112.376 1.75082 82.298 1.75082C52.2205 1.75036 27.7504 26.2205 27.7504 56.298C27.7504 65.449 30.0619 74.5028 34.4355 82.4798C34.6676 82.9038 34.5129 83.4355 34.0889 83.668C33.9554 83.7412 33.8108 83.7762 33.669 83.7762Z" fill="white"/>
<path d="M82.298 23.454C81.8146 23.454 81.4229 23.0623 81.4229 22.5789V1.02112C81.4229 0.537718 81.8146 0.145935 82.298 0.145935C82.7814 0.145935 83.1732 0.537718 83.1732 1.02112V22.5784C83.1737 23.0623 82.7814 23.454 82.298 23.454Z" fill="white"/>
<path d="M84.2606 28.8405H80.2101C79.7267 28.8405 79.335 28.4487 79.335 27.9653V24.6041C79.335 23.0047 80.636 21.7037 82.2354 21.7037C83.8343 21.7037 85.1357 23.0047 85.1357 24.6041V27.9653C85.1362 28.4487 84.744 28.8405 84.2606 28.8405ZM81.0853 27.0901H83.3854V24.6041C83.3854 23.9701 82.8698 23.454 82.2354 23.454C81.601 23.454 81.0853 23.9697 81.0853 24.6041V27.0901Z" fill="white"/>
<path d="M96.8945 39.1171H67.7019C67.2185 39.1171 66.8267 38.7253 66.8267 38.2419V35.9142C66.7019 33.2965 68.955 30.9882 73.5243 29.0955C76.7267 27.7692 79.9061 27.1339 80.0396 27.1076C80.0953 27.0966 80.1524 27.091 80.209 27.091H83.8004C83.8432 27.0648 83.8884 27.0418 83.9358 27.0229C84.2369 26.9032 84.5762 26.9594 84.8206 27.1633C85.6663 27.3456 88.3605 27.9736 91.0707 29.0955C95.6285 30.9831 97.8821 33.2832 97.7693 35.9336V38.2419C97.7697 38.7253 97.3779 39.1171 96.8945 39.1171ZM68.5766 37.3667H96.0194V35.9142C96.0194 35.9004 96.0198 35.8866 96.0203 35.8728C96.1289 33.581 93.0366 31.8067 90.423 30.7221C87.6464 29.5693 84.7962 28.9464 84.2935 28.8409C84.2829 28.8414 84.2719 28.8414 84.2613 28.8414H80.2988C79.7882 28.9482 76.944 29.5711 74.173 30.7216C71.5599 31.8067 68.4679 33.5806 68.5761 35.8728L68.5766 37.3667Z" fill="white"/>
<path d="M122.222 98.9793L118.125 74.4291C117.604 71.311 114.933 69.0477 111.771 69.0477H98.175C97.6916 69.0477 97.2998 69.4395 97.2998 69.9229C97.2998 70.4063 97.6916 70.7981 98.175 70.7981H107.891L103.182 98.9789C103.102 99.4558 103.424 99.907 103.9 99.9866C103.95 99.9949 103.998 99.9986 104.046 99.9986C104.466 99.9986 104.837 99.6957 104.908 99.268L109.666 70.7981H111.771C114.073 70.7981 116.019 72.4463 116.398 74.7169L120.495 99.2671C120.566 99.6952 120.937 99.9981 121.357 99.9981C121.404 99.9981 121.453 99.9945 121.502 99.9862C121.979 99.907 122.301 99.4563 122.222 98.9793Z" fill="white"/>
<path d="M76.0076 100C75.9597 100 75.9114 99.9963 75.8625 99.988C75.3861 99.9084 75.0638 99.4577 75.1434 98.9807L76.9541 88.1277C77.0338 87.6508 77.4849 87.3299 77.9614 87.4086C78.4379 87.4883 78.7602 87.939 78.6805 88.4159L76.8699 99.2689C76.798 99.6966 76.4274 100 76.0076 100Z" fill="white"/>
<path d="M79.7756 77.4294C79.7277 77.4294 79.6794 77.4253 79.6301 77.417C79.1536 77.3373 78.8314 76.8866 78.911 76.4097L80.0187 69.7779C80.0983 69.301 80.5481 68.9791 81.026 69.0588C81.5025 69.1384 81.8248 69.5892 81.7451 70.0661L80.6374 76.6979C80.5665 77.126 80.1955 77.4294 79.7756 77.4294Z" fill="white"/>
<path d="M93.3206 99.9972C92.9008 99.9972 92.5297 99.6943 92.4583 99.2662L90.7333 88.9242C90.6536 88.4472 90.9755 87.9965 91.4524 87.9169C91.9326 87.8372 92.3805 88.1595 92.4597 88.636L94.1848 98.978C94.2644 99.4549 93.9426 99.9056 93.4657 99.9853C93.4169 99.9936 93.3681 99.9972 93.3206 99.9972Z" fill="white"/>
<path d="M89.5503 77.4087C89.1304 77.4087 88.7593 77.1053 88.688 76.6772L88.3611 74.7169C87.9827 72.4458 86.0367 70.7977 83.7343 70.7977H70.1384C69.655 70.7977 69.2632 70.4059 69.2632 69.9225C69.2632 69.4391 69.655 69.0473 70.1384 69.0473H83.7343C86.8957 69.0473 89.5678 71.311 90.0875 74.4291L90.4144 76.3894C90.4941 76.8664 90.1722 77.3171 89.6953 77.3967C89.6465 77.4046 89.5977 77.4087 89.5503 77.4087Z" fill="white"/>
<path d="M120.813 84.7665C120.829 84.7439 120.844 84.7218 120.86 84.6993C122.202 82.7993 122.993 80.4845 122.993 77.9874V60.7664C122.993 54.9767 118.283 50.2666 112.494 50.2666H100.947C95.1575 50.2666 90.4468 54.9767 90.4468 60.7664V75.6579H80.4658C76.7018 75.6579 73.4579 78.5449 73.2728 82.3044C73.0749 86.323 76.287 89.6557 80.2633 89.6557H111.325C111.562 89.6557 111.797 89.6465 112.03 89.6327C112.101 89.6286 112.171 89.6221 112.241 89.6166C112.409 89.6032 112.576 89.5871 112.743 89.5669C112.815 89.5581 112.887 89.5494 112.959 89.5392C113.15 89.5125 113.339 89.4808 113.527 89.4449C113.564 89.4375 113.602 89.4324 113.639 89.4246C113.865 89.379 114.088 89.3261 114.308 89.2681C114.359 89.2543 114.41 89.2386 114.461 89.2248C114.633 89.1769 114.803 89.1254 114.971 89.0697C115.033 89.0494 115.094 89.0287 115.155 89.0075C115.329 88.9472 115.499 88.8827 115.668 88.8146C115.709 88.798 115.751 88.7833 115.791 88.7663C116.005 88.6774 116.216 88.5826 116.423 88.4818C116.438 88.4744 116.452 88.4666 116.467 88.4597C116.656 88.3667 116.841 88.2677 117.025 88.165C117.068 88.1406 117.112 88.1148 117.155 88.09C117.319 87.9951 117.481 87.8961 117.64 87.7935C117.673 87.7718 117.706 87.7511 117.74 87.7295C118.126 87.474 118.497 87.1959 118.85 86.8976C118.873 86.8787 118.894 86.8589 118.917 86.84C119.073 86.7061 119.225 86.5684 119.373 86.4266C119.396 86.405 119.419 86.3829 119.442 86.3612C119.78 86.033 120.099 85.6854 120.397 85.3185C120.4 85.3153 120.402 85.312 120.404 85.3088C120.544 85.1311 120.68 84.9506 120.813 84.7665ZM75.0375 83.1625C74.7438 80.0421 77.2013 77.4078 80.2623 77.4078H91.1038C91.1738 77.4257 91.2456 77.4382 91.3216 77.4382C91.3971 77.4382 91.4694 77.4257 91.5393 77.4078H103.38C103.863 77.4078 104.255 77.016 104.255 76.5326C104.255 76.0492 103.863 75.6574 103.38 75.6574H92.1972V60.766C92.1972 55.9417 96.1224 52.0165 100.947 52.0165H112.494C117.318 52.0165 121.243 55.9412 121.243 60.766V77.9869C121.243 81.5761 119.327 84.7255 116.464 86.4667C114.964 87.3787 113.205 87.9044 111.325 87.9044H80.417C77.6847 87.9049 75.2939 85.882 75.0375 83.1625Z" fill="white"/>
</g>
<path d="M1.87309 141V124.68H13.1291V126.84H4.56109V131.976H12.2171V134.136H4.56109V141H1.87309ZM23.3388 135.696V128.208H25.8828V141H23.3388V139.272C22.4988 140.64 21.1548 141.312 19.5228 141.312C16.9068 141.312 15.2748 139.776 15.2748 136.752V128.208H17.8428V136.224C17.8428 138.072 18.6108 139.176 20.3148 139.176C22.1868 139.176 23.3388 137.472 23.3388 135.696ZM29.0092 141V128.208H31.5772V130.104C32.4172 128.568 33.7372 127.872 35.2252 127.872C35.7292 127.872 36.2092 127.992 36.4492 128.208V130.464C36.0652 130.344 35.6092 130.296 35.0812 130.296C32.6332 130.296 31.5772 131.784 31.5772 134.016V141H29.0092ZM38.1967 141V128.208H40.7647V129.912C41.6287 128.544 42.9727 127.872 44.6287 127.872C47.2927 127.872 48.9487 129.432 48.9487 132.456V141H46.4047V132.984C46.4047 131.136 45.5887 130.008 43.8367 130.008C41.9167 130.008 40.7647 131.712 40.7647 133.488V141H38.1967ZM52.0717 126.624V123.72H54.6397V126.624H52.0717ZM52.0717 141V128.208H54.6397V141H52.0717ZM58.0796 137.184V130.2H56.3516V128.208H58.0796V125.256H60.6476V128.208H63.4076V130.2H60.6476V137.04C60.6476 138.504 61.0556 139.2 62.8556 139.2H63.3596V141.072C63.0716 141.216 62.4716 141.312 61.7516 141.312C59.2556 141.312 58.0796 139.944 58.0796 137.184ZM73.4013 135.696V128.208H75.9453V141H73.4013V139.272C72.5613 140.64 71.2173 141.312 69.5853 141.312C66.9693 141.312 65.3373 139.776 65.3373 136.752V128.208H67.9053V136.224C67.9053 138.072 68.6733 139.176 70.3773 139.176C72.2493 139.176 73.4013 137.472 73.4013 135.696ZM79.0717 141V128.208H81.6397V130.104C82.4797 128.568 83.7997 127.872 85.2877 127.872C85.7917 127.872 86.2717 127.992 86.5117 128.208V130.464C86.1277 130.344 85.6717 130.296 85.1437 130.296C82.6957 130.296 81.6397 131.784 81.6397 134.016V141H79.0717ZM99.3768 136.824C98.6808 139.8 96.4728 141.312 93.4728 141.312C89.7048 141.312 87.4008 138.792 87.4008 134.616C87.4008 130.272 89.7048 127.872 93.3528 127.872C97.0488 127.872 99.2808 130.368 99.2808 134.472V135.096H90.0168C90.1608 137.712 91.3848 139.176 93.4728 139.176C95.1048 139.176 96.2568 138.408 96.6888 136.824H99.3768ZM93.3528 130.008C91.5048 130.008 90.4008 131.184 90.0888 133.344H96.6168C96.3048 131.184 95.1768 130.008 93.3528 130.008ZM108.94 128.712C108.94 133.008 118.828 129.624 118.828 136.296C118.828 139.512 116.212 141.312 112.636 141.312C109.012 141.312 106.516 139.656 105.844 136.248H108.652C109.108 138.096 110.476 139.104 112.66 139.104C114.892 139.104 116.068 138.12 116.068 136.656C116.068 132.048 106.18 135.48 106.18 128.928C106.18 126.48 108.244 124.368 111.964 124.368C115.18 124.368 117.82 125.904 118.396 129.48H115.54C115.084 127.464 113.812 126.576 111.892 126.576C110.02 126.576 108.94 127.416 108.94 128.712ZM121.572 137.184V130.2H119.844V128.208H121.572V125.256H124.14V128.208H126.9V130.2H124.14V137.04C124.14 138.504 124.548 139.2 126.348 139.2H126.852V141.072C126.564 141.216 125.964 141.312 125.244 141.312C122.748 141.312 121.572 139.944 121.572 137.184ZM134.182 141.312C130.462 141.312 128.206 138.792 128.206 134.616C128.206 130.272 130.534 127.872 134.182 127.872C137.902 127.872 140.158 130.44 140.158 134.616C140.158 138.936 137.83 141.312 134.182 141.312ZM134.182 139.152C136.366 139.152 137.542 137.568 137.542 134.616C137.542 131.688 136.342 130.032 134.182 130.032C132.022 130.032 130.822 131.64 130.822 134.616C130.822 137.52 132.022 139.152 134.182 139.152ZM142.658 141V128.208H145.226V130.104C146.066 128.568 147.386 127.872 148.874 127.872C149.378 127.872 149.858 127.992 150.098 128.208V130.464C149.714 130.344 149.258 130.296 148.73 130.296C146.282 130.296 145.226 131.784 145.226 134.016V141H142.658ZM162.963 136.824C162.267 139.8 160.059 141.312 157.059 141.312C153.291 141.312 150.987 138.792 150.987 134.616C150.987 130.272 153.291 127.872 156.939 127.872C160.635 127.872 162.867 130.368 162.867 134.472V135.096H153.603C153.747 137.712 154.971 139.176 157.059 139.176C158.691 139.176 159.843 138.408 160.275 136.824H162.963ZM156.939 130.008C155.091 130.008 153.987 131.184 153.675 133.344H160.203C159.891 131.184 158.763 130.008 156.939 130.008Z" fill="white"/>
<defs>
<clipPath id="clip0_1622_7563">
<rect width="112.596" height="100" fill="white" transform="translate(26)"/>
</clipPath>
</defs>
</svg>
