<svg width="20" height="20" viewBox="0 0 20 20" fill="none" xmlns="http://www.w3.org/2000/svg">
<path d="M6.04 11.62L5.44 12.07H5.44L6.04 11.62ZM7.12 13.06L7.72 12.61L7.72 12.61L7.12 13.06ZM12.88 13.06L12.28 12.61L12.88 13.06ZM13.96 11.62L13.36 11.17V11.17L13.96 11.62ZM7.3 7.45C6.88579 7.45 6.55 7.78579 6.55 8.2C6.55 8.61421 6.88579 8.95 7.3 8.95V7.45ZM10 8.95C10.4142 8.95 10.75 8.61421 10.75 8.2C10.75 7.78579 10.4142 7.45 10 7.45V8.95ZM7.3 3.85C6.88579 3.85 6.55 4.18579 6.55 4.6C6.55 5.01421 6.88579 5.35 7.3 5.35V3.85ZM12.7 5.35C13.1142 5.35 13.45 5.01421 13.45 4.6C13.45 4.18579 13.1142 3.85 12.7 3.85V5.35ZM18.25 13.6V16.3H19.75V13.6H18.25ZM16.3 18.25H3.7V19.75H16.3V18.25ZM1.75 16.3V13.6H0.25V16.3H1.75ZM3.7 11.65H4.6V10.15H3.7V11.65ZM5.44 12.07L6.52 13.51L7.72 12.61L6.64 11.17L5.44 12.07ZM15.4 11.65H16.3V10.15H15.4V11.65ZM13.48 13.51L14.56 12.07L13.36 11.17L12.28 12.61L13.48 13.51ZM10 15.25C11.3692 15.25 12.6585 14.6054 13.48 13.51L12.28 12.61C11.7418 13.3276 10.8971 13.75 10 13.75V15.25ZM15.4 10.15C14.5974 10.15 13.8416 10.5279 13.36 11.17L14.56 12.07C14.7583 11.8056 15.0695 11.65 15.4 11.65V10.15ZM6.52 13.51C7.34152 14.6054 8.63081 15.25 10 15.25V13.75C9.10294 13.75 8.25823 13.3276 7.72 12.61L6.52 13.51ZM4.6 11.65C4.9305 11.65 5.2417 11.8056 5.44 12.07L6.64 11.17C6.15842 10.5279 5.40263 10.15 4.6 10.15V11.65ZM3.7 18.25C2.62304 18.25 1.75 17.377 1.75 16.3H0.25C0.25 18.2054 1.79462 19.75 3.7 19.75V18.25ZM18.25 16.3C18.25 17.377 17.377 18.25 16.3 18.25V19.75C18.2054 19.75 19.75 18.2054 19.75 16.3H18.25ZM19.75 13.6C19.75 11.6946 18.2054 10.15 16.3 10.15V11.65C17.377 11.65 18.25 12.523 18.25 13.6H19.75ZM1.75 13.6C1.75 12.523 2.62304 11.65 3.7 11.65V10.15C1.79462 10.15 0.25 11.6946 0.25 13.6H1.75ZM17.95 10.9V4.6H16.45V10.9H17.95ZM13.6 0.25H6.4V1.75H13.6V0.25ZM2.05 4.6V10.9H3.55V4.6H2.05ZM6.4 0.25C3.99756 0.25 2.05 2.19756 2.05 4.6H3.55C3.55 3.02599 4.82599 1.75 6.4 1.75V0.25ZM17.95 4.6C17.95 2.19756 16.0024 0.25 13.6 0.25V1.75C15.174 1.75 16.45 3.02599 16.45 4.6H17.95ZM7.3 8.95H10V7.45H7.3V8.95ZM7.3 5.35H12.7V3.85H7.3V5.35Z" fill="#828A89"/>
</svg>
