<svg width="20" height="16" viewBox="0 0 20 16" fill="none" xmlns="http://www.w3.org/2000/svg">
<path fill-rule="evenodd" clip-rule="evenodd" d="M16.6665 8H3.33317C2.41234 8 1.6665 8.74583 1.6665 9.66667V12.1108C1.6665 12.5708 2.03984 12.9442 2.49984 12.9442H17.4998C17.9598 12.9442 18.3332 12.5708 18.3332 12.1108V9.66667C18.3332 8.74583 17.5873 8 16.6665 8Z" stroke="#828A89" stroke-width="1.4" stroke-linecap="round" stroke-linejoin="round"/>
<path d="M3.33301 8V3.7775C3.33301 2.39666 4.45217 1.2775 5.83301 1.2775H14.1663C15.5472 1.2775 16.6663 2.39666 16.6663 3.7775V8" stroke="#828A89" stroke-width="1.4" stroke-linecap="round" stroke-linejoin="round"/>
<path d="M17.4997 13V14.6083" stroke="#828A89" stroke-width="1.4" stroke-linecap="round" stroke-linejoin="round"/>
<path d="M2.49967 13V14.6083" stroke="#828A89" stroke-width="1.4" stroke-linecap="round" stroke-linejoin="round"/>
<path d="M6.25 8V8C6.25 6.61917 7.36917 5.5 8.75 5.5H11.25C12.6308 5.5 13.75 6.61917 13.75 8V8" stroke="#828A89" stroke-width="1.4" stroke-linecap="round" stroke-linejoin="round"/>
</svg>
