<svg width="18" height="22" viewBox="0 0 18 22" fill="none" xmlns="http://www.w3.org/2000/svg">
<path d="M8.07172 3.06949C5.26334 3.49348 3.01734 5.81294 2.67964 8.79403L2.33476 11.8385C2.24906 12.595 1.94246 13.3069 1.45549 13.88C0.422086 15.0964 1.26081 17 2.83014 17H15.1699C16.7392 17 17.5779 15.0964 16.5445 13.88C16.0575 13.3069 15.7509 12.595 15.6652 11.8385L15.4373 9.82673M12 19C11.5633 20.1652 10.385 21 9 21C7.61497 21 6.43668 20.1652 6 19M17 4C17 5.65685 15.6569 7 14 7C12.3431 7 11 5.65685 11 4C11 2.34315 12.3431 1 14 1C15.6569 1 17 2.34315 17 4Z" stroke="#101817" stroke-width="1.5" stroke-linecap="round"/>
</svg>
